<svg width="18" height="18" viewBox="0 0 18 18" fill="none" xmlns="http://www.w3.org/2000/svg">
<path d="M6.75 9C5.5125 9 4.5 10.0125 4.5 11.25C4.5 12.4875 5.5125 13.5 6.75 13.5C7.9875 13.5 9 12.4875 9 11.25C9 10.0125 7.9875 9 6.75 9ZM2.25 4.5C1.0125 4.5 0 5.5125 0 6.75C0 7.9875 1.0125 9 2.25 9C3.4875 9 4.5 7.9875 4.5 6.75C4.5 5.5125 3.4875 4.5 2.25 4.5ZM2.25 13.5C1.0125 13.5 0 14.5125 0 15.75C0 16.9875 1.0125 18 2.25 18C3.4875 18 4.5 16.9875 4.5 15.75C4.5 14.5125 3.4875 13.5 2.25 13.5ZM15.75 4.5C16.9875 4.5 18 3.4875 18 2.25C18 1.0125 16.9875 0 15.75 0C14.5125 0 13.5 1.0125 13.5 2.25C13.5 3.4875 14.5125 4.5 15.75 4.5ZM11.25 13.5C10.0125 13.5 9 14.5125 9 15.75C9 16.9875 10.0125 18 11.25 18C12.4875 18 13.5 16.9875 13.5 15.75C13.5 14.5125 12.4875 13.5 11.25 13.5ZM15.75 9C14.5125 9 13.5 10.0125 13.5 11.25C13.5 12.4875 14.5125 13.5 15.75 13.5C16.9875 13.5 18 12.4875 18 11.25C18 10.0125 16.9875 9 15.75 9ZM11.25 4.5C10.0125 4.5 9 5.5125 9 6.75C9 7.9875 10.0125 9 11.25 9C12.4875 9 13.5 7.9875 13.5 6.75C13.5 5.5125 12.4875 4.5 11.25 4.5ZM6.75 0C5.5125 0 4.5 1.0125 4.5 2.25C4.5 3.4875 5.5125 4.5 6.75 4.5C7.9875 4.5 9 3.4875 9 2.25C9 1.0125 7.9875 0 6.75 0Z" fill="#D9D9D9"/>
</svg>
